# xmcd
#
# Track frame offsets: 
#        150
#        11054
#        24158
#        36304
#        47876
#        60150
#        71619
#        85038
#        97984
#        111363
#        124022
#        137066
#        150463
#        159394
#        172846
#        184962
#        199544
#        213528
#        227289
#        239521
#        252035
#        264041
#        276050
#        287114
#
# Disc length: 3990 seconds
#
# Revision: 0
# Processed by: cddbd v1.5.1PL0 Copyright (c) Steve Scherf et al.
# Submitted via: ExactAudioCopy v0.95a4
#
DISCID=390f9418
DTITLE=George Morgan - Candy Kisses - Disc 1
DYEAR=1900
DGENRE=Country
TTITLE0=All I Need Is Some More Lovin'
TTITLE1=Candy Kisses
TTITLE2=Rainbow In My Heart
TTITLE3=Please Don't Let Me Love You
TTITLE4=Silver River
TTITLE5=Don't Make Me Sorry
TTITLE6=Put All Your Love In A Cookie Jar
TTITLE7=Room Full Of Roses
TTITLE8=I Love Everything About You
TTITLE9=Ring On Your Finger
TTITLE10=Cry-Baby Heart
TTITLE11=Why In Heaven's Name
TTITLE12=The Shoe Is On The Other Foot Now (& Dinah Shore)
TTITLE13=Wedding Dolls (& Dinah Shore)
TTITLE14=Greedy Fingers
TTITLE15=Angel Mother
TTITLE16=Lucky Seven
TTITLE17=You Win The Bride
TTITLE18=So Far
TTITLE19=Warm Hands, Cold Heart (& Dolly Good)
TTITLE20=Don't Be Afraid To Love Me
TTITLE21=I Know You'll Never Change
TTITLE22=Pardon Me For Being A Fool
TTITLE23=D-A-R-L-I-N-G
EXTD=
EXTT0=
EXTT1=
EXTT2=
EXTT3=
EXTT4=
EXTT5=
EXTT6=
EXTT7=
EXTT8=
EXTT9=
EXTT10=
EXTT11=
EXTT12=
EXTT13=
EXTT14=
EXTT15=
EXTT16=
EXTT17=
EXTT18=
EXTT19=
EXTT20=
EXTT21=
EXTT22=
EXTT23=
PLAYORDER=
